<?xml version="1.0" standalone="no"?>
<!DOCTYPE svg PUBLIC "-//W3C//DTD SVG 20010904//EN"
 "http://www.w3.org/TR/2001/REC-SVG-20010904/DTD/svg10.dtd">
<svg version="1.0" xmlns="http://www.w3.org/2000/svg"
 width="155.000000pt" height="79.000000pt" viewBox="0 0 155.000000 79.000000"
 preserveAspectRatio="xMidYMid meet">

<g transform="translate(0.000000,79.000000) scale(0.100000,-0.100000)"
fill="#000000" stroke="none">
<path d="M0 395 l0 -395 775 0 775 0 0 395 0 395 -775 0 -775 0 0 -395z m280
190 l0 -135 135 0 135 0 0 135 0 135 90 0 90 0 0 -315 0 -315 -90 0 -90 0 0
135 0 135 -135 0 -135 0 0 -135 0 -135 -90 0 -90 0 0 315 0 315 90 0 90 0 0
-135z m720 -45 l0 -180 45 0 45 0 0 180 0 180 45 0 45 0 0 -180 0 -180 45 0
45 0 0 180 0 180 90 0 90 0 0 -270 0 -270 -45 0 -45 0 0 -45 0 -45 -45 0 -45
0 0 45 0 45 -45 0 -45 0 0 45 0 45 -45 0 -45 0 0 -45 0 -45 -45 0 -45 0 0 -45
0 -45 -45 0 -45 0 0 45 0 45 -45 0 -45 0 0 270 0 270 90 0 90 0 0 -180z"/>
</g>
</svg>
