<?xml version="1.0" standalone="yes"?>
<svg width="1449" height="1448">
<path style="fill:#ffffff; stroke:none;" d="M0 0L0 1448L1449 1448L1449 0L0 0z"/>
<path style="fill:#000000; stroke:none;" d="M125 37L125 671L126 671C126 629.426 134.47 585.961 145.576 546C168.492 463.54 205.513 386.191 259.004 319C287.018 283.811 319.063 254.338 352 224C338.408 243.292 316.128 258.356 300.17 276C268.176 311.374 239.133 350.307 215.86 392C133.601 539.367 109.892 712.482 152.884 876C168.118 933.939 193.24 986.296 221 1039C214.512 1032.71 210.178 1022.84 205.719 1015C196.475 998.748 187.703 982.107 180.14 965C150.015 896.865 126 819.202 126 744L125 744L125 1359L730 1359L694 1305L693 1305C693 1311.72 692.094 1318.31 692.004 1325C691.945 1329.39 691.23 1333.64 691.039 1338C690.969 1339.61 690.182 1358.96 686.008 1353.53C683.467 1350.23 685.477 1343.71 685.83 1340C686.811 1329.7 686.849 1319.31 687.83 1309C688.126 1305.89 686.522 1296.41 691.055 1295.63C694.972 1294.96 699.22 1304.38 701.026 1307C710.055 1320.1 720.259 1333.11 728 1347L729 1347C729.54 1334.42 730.238 1321.5 731.714 1309C731.994 1306.63 731.007 1298.21 734.905 1298.21C738.714 1298.21 737.044 1309.6 736.985 1312C736.616 1327.03 736.488 1344.36 733 1359L760 1359C757.946 1345.37 769.334 1325 773.667 1312C774.724 1308.83 776.571 1298.06 781.003 1298.06C785.01 1298.06 787.389 1307.11 788.694 1310C793.628 1320.94 798.413 1331.97 803.15 1343C804.355 1345.8 808.256 1351.54 806.775 1354.62C805.372 1357.55 802.702 1354.42 801.824 1352.94C799.202 1348.49 797.858 1338.86 792.775 1336.6C775.018 1328.73 766.494 1344.51 764 1359L1400 1359L1400 726L1399 726C1399 815.466 1374.1 906.287 1334.25 986C1324.66 1005.17 1314.38 1024.04 1302.66 1042C1297.91 1049.26 1293.41 1058.13 1287 1064C1414.76 870.926 1424.52 621.589 1321.73 416C1286.12 344.788 1234.78 286.739 1179 231C1212.66 252.057 1241.26 289.321 1265.8 320C1350.08 425.349 1399 562.073 1399 697L1400 697L1400 37L740 37C748.371 53.3633 754.465 71.0552 761.576 88C762.467 90.125 769.588 103.793 764.061 103.793C756.338 103.793 757.85 82.6212 748.956 81.1482C732.746 78.4634 726.658 82.6494 721.192 97C720.511 98.7881 717.994 107.328 714.678 104.248C711.483 101.281 717.154 91.23 718.308 88C723.376 73.807 727.528 48.8264 738 38L721 37L685 37L560 37L125 37z"/>
<path style="fill:#ffffff; stroke:none;" d="M683 96C670.328 83.329 656.703 71.6415 644 59.0007C641.52 56.5331 633.807 46.9946 629.603 49.3264C625.927 51.366 629.388 62.757 629.92 66C631.666 76.6407 633.368 87.3219 634.87 98C635.495 102.448 635.33 109.924 638.008 113.663C639.958 116.385 642.473 114.705 642.812 111.941C643.424 106.959 641.558 100.921 640.754 96L638.589 82C637.415 74.6882 636.734 67.2013 635 60C647.673 72.6733 661.317 84.3422 674 97C676.949 99.9435 683.705 108.757 688.681 107.252C693.018 105.941 689.432 94.1194 688.92 91C687.119 80.027 685.418 69.0112 683.87 58C683.293 53.9017 683.386 46.7806 680.981 43.3372C679.039 40.5573 676.553 42.3553 676.163 45.0594C675.49 49.7299 677.162 55.3856 677.92 60L680.08 74C681.268 81.2347 682.849 88.665 683 96M845 61L846 61C850.329 74.5382 853.785 88.3436 857.709 102C858.613 105.145 859.579 114.195 863.289 115.249C867.578 116.467 871.59 108.675 873.651 106C882.374 94.6797 890.65 82.8055 900 72C899.441 79.022 897.781 86.0924 896.4 93L894.001 105C893.604 107.017 889.783 123.901 895.742 120.824C899.211 119.032 899.319 110.405 900 107C902.464 94.6777 904.736 82.3231 907.2 70C907.882 66.5901 910.506 59.7024 907.975 56.6227C904.315 52.1686 897.38 63.7559 895.651 66C885.881 78.6805 873.274 91.75 866 106C859.649 91.2433 856.726 74.4353 852.291 59C851.336 55.6763 850.022 44.592 845.831 43.9213C840.919 43.1351 840.22 55.9003 839.6 59C837.341 70.2959 835.013 81.6434 833.081 93C832.384 97.1007 830.214 102.726 831.333 106.847C833.852 116.129 838.919 95.8988 839.25 94C840.007 89.6509 840.935 85.3287 841.8 81C843.12 74.3993 844.711 67.7401 845 61z"/>
<path style="fill:#000000; stroke:none;" d="M738 50L729 76L749 75C747.807 68.0715 743.753 54.2325 738 50z"/>
<path style="fill:#ffffff; stroke:none;" d="M571.433 64.1759C567.798 65.9109 569.004 73.7401 568.576 77C566.761 90.8165 565.638 105.083 564.961 119C564.796 122.411 561.8 132.456 565.584 134.673C570.228 137.393 570.153 127.057 570.424 125C570.99 120.705 570.264 115.105 572.434 111.225C575.02 106.598 592.891 101.075 597.195 104.491C600.327 106.977 609.551 124.432 614.393 120.914C618.558 117.887 609.896 109.333 608.13 107C599.518 95.6246 590.745 84.3719 582.13 73C580.176 70.4215 575.649 62.1633 571.433 64.1759z"/>
<path style="fill:#000000; stroke:none;" d="M900 71L901 72L900 71z"/>
<path style="fill:#ffffff; stroke:none;" d="M938 110L963 118C963 124.917 962.379 132.162 963.595 138.995C963.95 140.989 965.925 147.094 968.811 143.377C971 140.559 969.005 133.419 969 130C968.98 117.284 968.02 104.72 968 92C967.995 88.8114 968.57 73.743 964.682 73.0602C960.502 72.3259 956.302 79.3419 954.08 82C945.103 92.7386 936 103.391 926.87 114C924.766 116.444 916.465 123.644 919.086 127.377C920.859 129.902 924.255 127.243 925.714 125.851C930.308 121.471 935.36 115.764 938 110z"/>
<path style="fill:#000000; stroke:none;" d="M575 75L572 103L592 97L575 75M961 84C955.15 89.9733 946.284 97.8441 944 106L963 112L961 84z"/>
<path style="fill:#ffffff; stroke:none;" d="M1002 162C1012.82 161.139 1014.39 141.529 1020.64 134.329C1026.27 127.83 1036.7 123.985 1044 119.6C1046.62 118.03 1051.37 116.129 1052.25 112.873C1053.58 107.951 1046.97 110.196 1045 111.245C1036.48 115.776 1028.23 120.965 1020 126C1019.6 116.713 1017.77 107.176 1016.27 98.0007C1015.96 96.1586 1014.17 89.1038 1011.02 92.662C1008.89 95.0812 1010.33 100.203 1010.73 103C1011.91 111.296 1015.17 121.67 1013.94 130C1012.25 141.419 1002.28 150.156 1002 162z"/>
<path style="fill:#000000; stroke:none;" d="M683 96L684 97L683 96z"/>
<path style="fill:#ffffff; stroke:none;" d="M543 140L507 153C501.086 138.586 494.777 124.296 488.576 110C487.3 107.058 484.663 97.4794 480.275 98.176C475.152 98.9893 481.744 110.741 482.719 113C488.595 126.619 493.122 146.077 502.353 157.682C505.436 161.558 510.343 158.962 514 157.421C521.749 154.154 542.255 149.371 543 140M1052 181L1065 160C1071.24 164.126 1077.58 168.206 1084 172.035C1086.01 173.232 1089.87 175.959 1092.2 173.955C1094.9 171.634 1090.66 168.418 1088.98 167.232C1082.71 162.817 1075.93 158.279 1069 155L1081 134C1090.23 137.981 1098.45 144.553 1107 149.807C1109.38 151.271 1114.43 155.355 1117.34 152.958C1120.87 150.042 1112.78 145.509 1111 144.344C1104.19 139.876 1089.36 126.383 1081.1 126.827C1076.7 127.064 1073.45 134.77 1071.42 138C1065.35 147.703 1059.25 157.41 1053 167C1050.51 170.818 1045.66 176.239 1045.43 180.96C1045.24 184.763 1049.24 186.832 1052 188.576C1059.35 193.219 1066.62 197.992 1074 202.575C1076.21 203.95 1081.75 208.289 1084.25 205.356C1086.77 202.395 1080.88 198.94 1079 197.696C1070.34 191.97 1061.38 185.436 1052 181M448 185C442.798 170.791 432.691 157.138 425.15 144C423.695 141.466 419.381 131.048 415.29 133.176C410.562 135.635 417.638 144.366 419.15 147C426.832 160.384 433.574 178.257 443.954 189.678C449.495 195.774 469.334 180.1 475 176.85C477.37 175.49 483.401 172.976 482.248 169.282C481.008 165.306 474.952 169.202 473 170.285C464.564 174.963 456.046 179.676 448 185M365.607 167.083C362.14 169.471 366.128 177.976 367 181C371.025 194.965 374.738 209.021 378.71 223C379.388 225.386 381.695 238.342 386.4 234.914C391.639 231.097 380.812 215.731 383.201 210.09C385.081 205.654 397.117 196.327 402 196.213C406.07 196.118 410.724 200.261 414 202.319C415.834 203.471 424.965 209.872 425.94 204.721C426.759 200.392 416.887 196.222 414 194.424L379 172.576C376.166 170.811 369.166 164.631 365.607 167.083M1103 223C1113.17 222.227 1115.1 206.411 1124 206.016C1128.01 205.839 1132.42 211.359 1136 213C1134.47 221.254 1133.78 229.675 1132.72 238C1132.42 240.317 1131.08 245.222 1134.26 246.249C1137.68 247.351 1138.24 242.117 1138.57 239.999C1139.8 232.131 1140.98 223.964 1141 216C1164.72 221.645 1175.48 193.233 1158 178.615C1154.76 175.912 1147.89 168.231 1143.17 170.161C1133.53 174.102 1123.55 193.014 1116.92 201C1111.65 207.351 1103.62 214.402 1103 223z"/>
<path style="fill:#000000; stroke:none;" d="M372 176L380 203L395 190L372 176M1144 177L1127 199C1132.8 203.373 1139.17 210.787 1147 210.812C1157 210.845 1163.68 200.097 1159.99 191C1157.45 184.722 1150.12 179.368 1144 177z"/>
<path style="fill:#ffffff; stroke:none;" d="M335 637C333.585 669.859 322.389 701.625 327.59 735C328.926 743.573 330.65 754.438 337.213 760.772C340.907 764.336 348.839 765.713 351.254 759.891C354.161 752.882 344.64 739.691 343.439 732C339.756 708.416 341.66 682.546 344.718 659C345.536 652.708 345.107 639.993 350.303 635.589C353.63 632.769 359.858 632.611 364 631.92C374.009 630.25 383.989 628.422 394 626.753C434.976 619.924 474.417 615 516 615C515.499 639.288 511.104 663.692 510.039 688C507.291 750.761 512.324 815.819 531.026 876C539.732 904.017 559.149 943.628 595 928.536C599.784 926.521 604.199 923.417 607.999 919.907C612.672 915.591 617.102 910.678 620 905L621 905C618.423 937.644 616.603 971.188 618.039 1004C618.393 1012.08 619.207 1036.86 633.941 1028.82C642.246 1024.29 639.411 1004.98 640.17 997C643.22 964.952 645.896 932.768 651.614 901C669.015 804.318 701.928 709.39 758.026 628C772.387 607.163 788.714 585.096 808 568.579C814.85 562.713 822.926 555.551 832 553.53C843.492 550.971 844.896 563.615 844.996 572C845.254 593.702 841.427 615.491 838.845 637C830.136 709.544 816.623 781.467 807.715 854C805.493 872.096 802.189 891.823 803.831 910C804.385 916.133 802.736 924.646 808.394 928.991C813.263 932.73 820.586 931.077 823.583 925.956C829.967 915.049 832.911 899.98 836.997 888C851.577 845.248 871.712 800.3 898.895 764C905.051 755.78 921.477 730.647 933.996 734.194C940.773 736.115 943.952 745.121 946.186 751C952.539 767.717 954.732 786.349 956.845 804C964.021 863.938 970.493 927.589 1001 981C1007.18 991.82 1013.31 1002.97 1022.04 1012C1025.87 1015.96 1030.13 1019.47 1035 1022.1C1066.33 1039.01 1092.73 1003.12 1106.6 980C1117.87 961.213 1127.05 941.319 1135.2 921C1143.34 900.721 1150.44 879.925 1156.72 859C1159.14 850.931 1163.71 841.478 1163.86 833.001C1164.01 825.033 1155.85 824.611 1152.57 831.019C1147.1 841.711 1145.15 855.559 1141.33 867C1127.68 907.964 1113.86 952.272 1087.35 987C1079.24 997.619 1063.61 1016.86 1048 1012.36C1041.37 1010.45 1035.66 1004.91 1031.09 999.999C1020.94 989.101 1014.33 975.193 1007.75 962C987.262 920.912 979.021 873.317 974.166 828C971.629 804.317 968.58 779.954 962 757C959.271 747.481 956.737 736.498 949.815 729.043C925.816 703.2 894.519 748.724 883 766C874.334 778.998 866.215 792.307 858.694 806C847.259 826.822 831.071 852.356 827 876L826 876C826.539 849.867 832.921 822.846 836.728 797C844.763 742.46 852.685 687.843 858.169 633C860.323 611.455 864.089 588.616 861.282 567C860.25 559.057 859.382 550.292 853.786 544.043C845.483 534.772 831.177 537.29 821 541.865C798.619 551.926 781.481 574.567 766.25 593C721.68 646.942 689.047 712.86 667 779C659.242 802.275 649.008 828.424 647 853L646 853C646.129 837.469 649.045 821.34 651.424 806C653.997 789.414 661.338 769.711 659.906 753C658.635 738.162 643.648 743.808 639.877 754C630.118 780.376 628.601 811.293 625.286 839C623.547 853.525 624.201 866.776 617.219 880C610.687 892.373 597.978 913.475 582 913.863C573.842 914.062 567.708 906.189 563.699 900C553.579 884.376 549.464 864.846 545.13 847C532.089 793.304 530.33 735.904 534.089 681C535.567 659.418 540.555 637.578 541 616C560.204 616 579.049 617.758 598 620.92C602.591 621.686 613.677 626.52 616.968 621.566C622.35 613.463 606.46 610.879 602 610.001C582.479 606.159 562.76 604.56 543 603C552.162 530.883 580.852 457.432 571.715 384C570.523 374.418 568.524 365.013 564.997 356C562.573 349.806 559.853 344.151 555.535 339.015C528.088 306.363 483.445 335.662 460 356.925C445.399 370.168 432.076 384.826 420.721 401C389.206 445.89 370.222 498.76 354.721 551C349.944 567.096 346.092 583.541 342.8 600C341.544 606.28 341.747 616.767 337.486 621.772C332.598 627.515 319.961 627.087 313 628.247C290.63 631.975 255.262 640.427 235.001 626.2C223.427 618.073 225.018 607.433 220.11 596.059C218.733 592.867 215.396 591.326 212.059 592.608C206.711 594.662 207.837 602.429 208.039 607C208.653 620.89 217.023 634.047 230 639.536C261.07 652.675 303.232 643.161 335 637z"/>
<path style="fill:#000000; stroke:none;" d="M352 620C369.46 619.25 386.82 614.295 404 611.414C427.313 607.504 450.537 605.403 474 603.17C484.179 602.201 494.777 603 505 603C508.289 603 514.519 604.172 517.258 601.972C520.578 599.307 520.456 589.954 521 586C522.937 571.933 525.779 557.954 528.389 544C537.441 495.604 550.921 445.424 551 396C551.026 379.515 549.479 351.835 532.999 342.916C522.764 337.377 510.757 340.95 501 345.756C480.962 355.627 464.364 370.159 449.87 387C405.997 437.976 379.834 502.534 362.884 567C358.284 584.497 356.218 602.486 352 620z"/>
<path style="fill:#ffffff; stroke:none;" d="M1095 641C1089.14 641 1078.26 639.425 1073.6 643.857C1069.83 647.448 1073.24 656.809 1074.43 661C1079.21 677.866 1089.82 690.824 1102 703C1086.09 705.142 1069.72 713.176 1058 724.09C1054.62 727.241 1047.25 733.322 1047.7 738.572C1048.21 744.565 1059.19 749.925 1064 752C1058.25 762 1041 779.86 1044.78 792.895C1047.81 803.355 1073.69 803 1082 803C1115.02 803 1163.28 784.56 1176 751L1177 751C1177 799.935 1219.93 854 1271 854C1274.7 837.82 1275.08 824.429 1273 808L1296 804L1289.69 778L1266 745C1281.72 743.716 1298.57 734.36 1309.99 723.829C1322.99 711.828 1318.78 700.937 1302 696C1310.21 687.419 1316.51 677.169 1320.56 666C1321.85 662.466 1324.14 656.857 1321.97 653.275C1319.95 649.951 1314.46 648.759 1311 647.721C1299.47 644.265 1285.95 644.014 1274 645.17C1243.95 648.077 1205.91 667.068 1192 695C1188.79 686.441 1188.63 676.819 1185.81 668C1179.46 648.16 1167.12 628.89 1151 615.615C1139.77 606.365 1127.21 598.906 1113 595.375C1109.23 594.438 1101.93 592.134 1098.28 594.117C1094.91 595.949 1094.45 601.65 1093.8 605C1091.64 616.317 1092.25 629.85 1095 641z"/>
<path style="fill:#000000; stroke:none;" d="M1102 600C1099.52 609.6 1094.99 632.001 1102.86 640.262C1107.88 645.537 1123.96 646.829 1131 650.259C1154.21 661.568 1177 683.058 1183 709C1187.44 698.409 1182.72 681.404 1179.33 671C1167.29 634.05 1139.13 609.148 1102 600z"/>
<path style="fill:#ffffff; stroke:none;" d="M1207 610.507C1186.64 613.431 1190.58 645.2 1211 642.684C1231.86 640.115 1227.83 607.514 1207 610.507z"/>
<path style="fill:#000000; stroke:none;" d="M1208 615.708C1193.7 617.58 1196.96 639.64 1211 637.373C1224.39 635.212 1221.45 613.946 1208 615.708M1075 646C1077.28 663.963 1087.77 692.864 1106 700.731C1111.8 703.233 1122.61 701 1129 701C1116.13 682.173 1101.34 667.094 1096 644L1075 646M1103 645C1109.67 665.468 1121.82 687.841 1140 700.347C1145.63 704.224 1153.67 704.888 1160 707.453C1167.52 710.501 1173.72 715.761 1181 719L1182 718C1174.96 681.721 1140.8 648.088 1103 645M1192 710C1210.34 697.471 1228.91 686.278 1252 686.004C1261.45 685.891 1270.74 685.755 1280 687.887C1284.42 688.905 1291.6 692.766 1295.99 690.879C1306.52 686.348 1313.08 667.099 1316 657C1281.59 643.747 1242.21 655.375 1215 678.87C1205.71 686.894 1195.54 697.96 1192 710M1188 721C1196.21 721 1204.85 720.231 1213 721.289C1219.3 722.109 1225.66 725.188 1232 725.236C1251.27 725.381 1280.99 710.497 1292 695C1261.94 681.69 1204.66 688.889 1188 721M1299 698C1285.6 713.49 1262.52 727.234 1242 730L1242 731C1249.01 733.933 1257.28 742.981 1265 742.137C1279.34 740.571 1294.07 732.135 1305 723.195C1308.25 720.532 1315.48 714.922 1314.96 710.089C1314.35 704.399 1303.55 699.903 1299 698M1112 705L1112 706C1124.96 714.739 1131.96 715 1147 715C1138.43 704.621 1124.84 701.206 1112 705M1124 718C1106.18 701.26 1087.64 707.312 1069 720.029C1063.59 723.722 1053.94 730.044 1052.46 736.961C1051.4 741.863 1062.64 749.111 1067 748.758C1072.54 748.31 1079.42 739.496 1084 736.347C1096.03 728.068 1109.59 720.982 1124 718M1152 708L1152 709L1169 716L1169 715L1152 708M1144 721L1144 722L1169 724L1144 721M1075 754C1102.68 760.345 1128.9 761.485 1155 748.244C1164.25 743.548 1174.82 736.877 1179 727C1170.06 727.074 1161.98 727.989 1153 726.714C1146.79 725.834 1140.24 722.461 1134 722.799C1120.67 723.522 1106.31 730.39 1095 737.012C1087.93 741.15 1078.61 746.415 1075 754M1200 724L1200 725L1221 727L1200 724M1186 729C1186.34 770.062 1230.69 795.119 1265 804C1258.38 783.66 1246.66 759.726 1228 747.728C1222.53 744.21 1215.02 743.977 1209 741.547C1200.78 738.229 1193.94 732.534 1186 729M1196 731L1196 732L1218 741L1218 740L1196 731M1220 733L1220 734L1235 743.436L1257 744C1245.31 732.808 1234.89 732.998 1220 733M1174 739C1155.43 753.968 1131.31 763.965 1107 762.896C1099.01 762.544 1090.75 761.354 1083 759.37C1079.59 758.499 1074.56 755.797 1071.09 757.212C1061.2 761.24 1053.44 781.268 1052 791C1086.3 803.788 1124.7 792.411 1152 769.41C1159.52 763.075 1174.11 749.736 1174 739M1184 741C1180.73 752.065 1184.79 766.38 1188.33 777C1198.97 808.907 1229.33 846.239 1266 847L1266 807C1238.66 803.469 1212.8 787.305 1196.75 765C1191.3 757.432 1188.82 748.661 1184 741M1239 748C1248.02 758.991 1257.2 769.142 1263.63 782C1266.29 787.317 1268 799.445 1272.7 802.972C1276.21 805.599 1290.46 804.933 1291.59 799.772C1294.54 786.354 1279.97 766.124 1271.83 757C1268.87 753.686 1265.28 749.183 1261 747.603C1254.63 745.255 1245.7 747.999 1239 748M645.333 855.667L645.667 856.333L645.333 855.667M825 877L826 878L825 877z"/>
<path style="fill:#ffffff; stroke:none;" d="M255 1084C274.496 1083.95 279.683 1058.86 261.711 1050.08C255.815 1047.2 244.256 1059.81 240 1063.2C233.418 1068.44 216.331 1077.18 213.661 1085.29C212.207 1089.7 217.907 1095.01 220.439 1098C233.28 1113.14 261.789 1107.02 255 1084z"/>
<path style="fill:#000000; stroke:none;" d="M244 1067C245.605 1069.79 247.353 1072.46 249.616 1074.79C251.157 1076.37 252.877 1077.69 255.015 1078.34C271.426 1083.38 268.366 1055.3 257.961 1057.26C253.043 1058.18 248.126 1064.27 244 1067M239 1071L220 1086C222.139 1092.34 228.022 1100.32 235 1101.65C245.778 1103.72 253.015 1092.37 248.558 1083C246.409 1078.48 242.731 1074.26 239 1071z"/>
<path style="fill:#ffffff; stroke:none;" d="M1261 1130C1260.17 1121.9 1252.31 1115.89 1251.64 1108.29C1251.25 1103.85 1260.14 1094.97 1263.43 1092.41C1268.1 1088.77 1276.95 1094.19 1282 1095.4C1283.83 1095.84 1287.58 1096.77 1288.08 1093.95C1288.83 1089.72 1275.88 1087.29 1273 1086.33L1239 1075C1236.3 1074.1 1229.34 1070.49 1227.07 1073.62C1224.12 1077.68 1233.3 1089.35 1235.31 1093C1238.25 1098.36 1241.36 1103.64 1244.31 1109C1248.04 1115.79 1252.4 1129.32 1261 1130z"/>
<path style="fill:#000000; stroke:none;" d="M1235 1080L1247 1102L1248 1102L1258 1087L1235 1080z"/>
<path style="fill:#ffffff; stroke:none;" d="M297.851 1096.18C293.61 1096.7 288.939 1102.26 286 1105.04C278.116 1112.48 269.849 1119.52 262 1127C260.787 1128.16 250.377 1136.81 256.323 1138.12C260.518 1139.04 265.388 1132.51 268 1130.09C277.212 1121.55 286.857 1113.46 295.981 1104.83C297.201 1103.68 303.861 1095.43 297.851 1096.18M1236 1143C1229.71 1144.04 1229.97 1150.31 1226.89 1155C1222.83 1161.17 1216.36 1165.62 1209 1166.7C1192.11 1169.17 1176.44 1151.33 1181.44 1135C1184.66 1124.51 1192.57 1120.32 1201.94 1116.52C1203.88 1115.73 1206.95 1113.13 1203.66 1111.61C1194.74 1107.49 1181.5 1120.17 1178.14 1127C1170.59 1142.36 1176.26 1162.03 1192 1169.6C1211.95 1179.19 1235.81 1165.16 1236 1143M313 1128.46C273.995 1135.5 285.145 1196.54 324 1189.54C364.08 1182.31 352.98 1121.26 313 1128.46z"/>
<path style="fill:#000000; stroke:none;" d="M318 1133.52C283.873 1136.03 287.907 1186.7 322 1183.91C353.312 1181.34 349.295 1131.22 318 1133.52z"/>
<path style="fill:#ffffff; stroke:none;" d="M1141 1158C1143.44 1165.24 1149.76 1171.2 1154.59 1177L1164.42 1189L1170.25 1196C1171.39 1197.37 1180.98 1209.64 1182.08 1202.83C1182.73 1198.84 1176.7 1193.74 1174.41 1191C1167.51 1182.7 1160.59 1174.39 1153.8 1166C1150.23 1161.58 1147.2 1156.63 1141 1158M371 1185L372 1185C371.473 1197.27 368.735 1209.88 366.754 1222C366.239 1225.15 363.791 1232.64 366.042 1235.35C368.576 1238.41 375.522 1233.53 378 1232.22C389.742 1226.02 401.565 1219.74 413 1213C409.812 1218.17 406.1 1223 402.659 1228L395.659 1238C393.435 1241.23 389.638 1244.99 388.851 1248.94C388.21 1252.16 391.173 1253.15 393.487 1251.38C403.662 1243.6 411.403 1226.45 418.859 1216C420.478 1213.73 428.308 1204.94 424.378 1202.28C420.991 1200 413.941 1205.74 411 1207.24C397.963 1213.92 385.525 1222.37 372 1228C372.615 1213.67 376.15 1199.2 378.13 1185C378.58 1181.77 381.627 1172.38 378.432 1170.09C374.459 1167.23 369.221 1177.67 367.576 1180C360.16 1190.48 346.734 1203.72 342.902 1215.96C339.759 1225.99 352.836 1211.83 354.141 1210L361.28 1200C364.687 1195.13 368.447 1190.37 371 1185M1086 1203L1105 1193C1110.87 1205.41 1120.65 1216.8 1128.58 1228C1129.85 1229.8 1135.8 1240.38 1138.92 1236.34C1141.47 1233.04 1135.15 1226.44 1133.42 1224C1125.21 1212.39 1117.28 1200.57 1109 1189C1115.01 1186.72 1122.68 1182.22 1125 1176C1120.44 1174.8 1117.81 1176.4 1114 1178.98C1105.96 1184.41 1087.58 1192.85 1086 1203z"/>
<path style="fill:#000000; stroke:none;" d="M372.333 1183.67L372.667 1184.33L372.333 1183.67z"/>
<path style="fill:#ffffff; stroke:none;" d="M1048.22 1201.18C1044.06 1203.2 1041.63 1220.46 1046.63 1217.82C1050.18 1215.95 1053.6 1198.55 1048.22 1201.18M1063 1277L1053 1257C1059.49 1254.64 1066.13 1250.87 1071.94 1247.12C1073.68 1246 1077.73 1242.01 1073.68 1240.73C1067.53 1238.79 1054.93 1249.84 1049 1252L1039 1234C1046.08 1228.18 1054.97 1224.16 1063 1219.77C1065.11 1218.61 1070.66 1216.43 1070.08 1213.23C1069.37 1209.32 1062.71 1212.91 1061 1213.78C1053.43 1217.67 1039 1222.86 1033.79 1229.63C1030.88 1233.41 1036.01 1239.67 1037.86 1243C1043.06 1252.32 1048.17 1261.7 1053.42 1271C1055.39 1274.49 1057.24 1279.91 1060.53 1282.35C1066.1 1286.5 1084.65 1272.25 1090 1269.31C1092.19 1268.1 1098.42 1265.74 1097.25 1262.24C1096.01 1258.53 1089.89 1262.3 1088 1263.31C1079.64 1267.78 1071.59 1272.99 1063 1277M421 1265L431 1245L450 1255.32L456.824 1255.43L452.981 1249.88L434 1240L444 1221C452.745 1223.52 461.074 1229.15 469 1233.57C471.085 1234.74 475.755 1237.96 478.149 1235.93C481.422 1233.16 474.715 1229.67 472.996 1228.75C465.241 1224.58 453.923 1215.1 445.015 1214.54C439.7 1214.21 437.715 1221.26 435.691 1225C429.628 1236.21 416.195 1252.27 414.647 1264.96C413.842 1271.55 436.738 1280.45 442 1283.22C444.073 1284.31 449.057 1287.69 451.248 1285.3C453.899 1282.4 447.837 1279.25 445.999 1278.26C437.744 1273.85 429.591 1268.7 421 1265z"/>
<path style="fill:#000000; stroke:none;" d="M371 1228L372 1229L371 1228z"/>
<path style="fill:#ffffff; stroke:none;" d="M973 1261C977.914 1260.88 988.672 1254.29 992.502 1256.82C995.339 1258.68 996.592 1264.01 997.799 1267C1001.33 1275.73 1005.14 1284.35 1008.85 1293C1011.19 1298.44 1012.34 1304.47 1019 1305C1017.46 1287.53 1004.64 1268.18 998 1252C1002.8 1250.63 1008.73 1248.69 1012.84 1245.79C1014.42 1244.67 1016.34 1241.8 1013.55 1240.71C1010.5 1239.51 1005.71 1242.55 1003 1243.72C995.12 1247.12 974.516 1251.68 973 1261M497.498 1243.12C492.411 1246.04 489.335 1259.72 487.201 1265C484.095 1272.68 473.442 1288.68 474.982 1296.9C475.688 1300.66 480.996 1302 484 1303.28C494.169 1307.62 505.054 1308.58 515 1302.96C531.418 1293.68 535.262 1270.67 523.61 1256C520.009 1251.47 503.85 1239.48 497.498 1243.12z"/>
<path style="fill:#000000; stroke:none;" d="M500 1249L481 1296C490.048 1299.51 499.289 1303.37 509 1299.52C537.101 1288.37 523.756 1254.64 500 1249z"/>
<path style="fill:#ffffff; stroke:none;" d="M544 1326C549.887 1325.04 550.642 1320.08 552.333 1315C555.875 1304.37 559.121 1293.64 562.667 1283C563.663 1280.01 568.373 1270.69 565.186 1268.09C561.107 1264.76 558.35 1276.95 557.667 1279L554.667 1288C553.011 1292.97 551.641 1298.03 549.999 1303C547.515 1310.53 544.171 1317.99 544 1326M937 1320C938.182 1335.32 961.143 1328.66 966 1319C971.44 1308.18 964.61 1295.16 953 1292.53C946.066 1290.96 938.208 1294.81 934.666 1286C932.134 1279.69 938.562 1272.83 945 1274.03C946.91 1274.39 952.164 1277.78 953.248 1274.54C954.773 1269.99 946.909 1268.18 944 1268.05C936.339 1267.71 929.701 1272.2 928.33 1280C924.282 1303.04 950.938 1292.51 959.566 1304.02C965.489 1311.91 958.369 1323.94 948.576 1323.02C944.586 1322.64 941.054 1320.41 937 1320M878 1342L873 1320C880.282 1318.59 887.839 1317.33 894.981 1315.33C897.138 1314.73 902.155 1311.43 897.677 1309.69C890.926 1307.06 878.332 1317.19 872.589 1312.31C868.408 1308.75 868.332 1297.15 867 1292C875.07 1291.34 901.524 1288.92 903 1280C892.828 1280.03 882.921 1283.18 873 1285.2C869.907 1285.83 864.093 1285.96 862.042 1288.73C859.74 1291.84 862.593 1298.65 863.349 1302C865.826 1312.96 868.179 1323.99 870.4 1335C871.089 1338.42 871.323 1344.81 874.513 1346.96C877.151 1348.74 881.229 1347.03 884 1346.42C890.949 1344.9 908.456 1344.54 913.338 1339.28C918.633 1333.57 902.474 1336.69 901 1337L892 1338.8C887.314 1339.75 882.629 1340.8 878 1342M637 1296C630.135 1275.82 599.056 1277.78 587.529 1292.04C576.601 1305.56 579.34 1328.21 594.001 1337.89C600.202 1341.99 619.418 1347.61 624.914 1339.32C626.82 1336.44 623.122 1335.33 620.981 1335.65C611.33 1337.11 603.086 1338.16 595.093 1330.79C580.38 1317.21 586.291 1290.97 607 1287.33C618.951 1285.23 627.45 1298.1 637 1296M662.258 1291.18C658.945 1292.89 659.184 1299.85 658.729 1303C656.999 1315.01 655.198 1327 653.421 1339C653.106 1341.13 650.481 1351.94 655.741 1350.25C659.141 1349.15 658.851 1340.86 659.272 1338C661.038 1326.01 662.667 1313.97 664.589 1302C664.876 1300.22 667.522 1288.46 662.258 1291.18z"/>
<path style="fill:#000000; stroke:none;" d="M781 1307L773 1331L791 1330L781 1307z"/>
</svg>
