<?xml version="1.0" standalone="no"?>
<!DOCTYPE svg PUBLIC "-//W3C//DTD SVG 20010904//EN"
 "http://www.w3.org/TR/2001/REC-SVG-20010904/DTD/svg10.dtd">
<svg version="1.0" xmlns="http://www.w3.org/2000/svg"
 width="1762.000000pt" height="1928.000000pt" viewBox="0 0 1762.000000 1928.000000"
 preserveAspectRatio="xMidYMid meet">

<g transform="translate(0.000000,1928.000000) scale(0.100000,-0.100000)"
fill="#000000" stroke="none">
<path d="M8492 17488 c-5 -13 -73 -197 -152 -410 -78 -213 -140 -394 -137
-402 8 -19 40 -21 55 -3 6 6 33 73 60 147 l49 135 49 7 c27 3 101 7 164 7
l116 1 60 -147 c49 -121 63 -149 81 -151 54 -8 47 18 -122 433 -152 376 -164
400 -189 403 -20 3 -28 -2 -34 -20z m109 -286 c34 -84 60 -154 58 -156 -2 -2
-62 -6 -132 -8 -90 -4 -127 -2 -124 6 67 191 123 332 129 323 4 -7 35 -81 69
-165z"/>
<path d="M7753 17463 c-6 -15 71 -630 84 -678 3 -11 -140 123 -319 298 -179
174 -333 317 -341 317 -9 0 -20 -8 -25 -17 -8 -16 88 -773 103 -810 6 -17 40
-17 54 0 8 10 -1 101 -35 346 -25 184 -43 335 -41 337 2 3 147 -135 321 -306
174 -170 323 -310 330 -310 40 0 39 19 -14 412 -28 211 -55 393 -60 406 -11
26 -48 30 -57 5z"/>
<path d="M9853 17398 c-4 -7 -47 -186 -94 -398 -59 -265 -83 -390 -77 -402 13
-25 47 -22 57 5 4 12 37 154 72 314 35 161 66 293 69 293 3 0 45 -160 94 -355
85 -341 89 -355 112 -355 18 0 70 58 251 280 125 154 228 278 230 276 2 -1
-26 -135 -62 -297 -36 -162 -64 -305 -63 -319 4 -35 44 -40 57 -8 18 41 172
758 169 781 -2 14 -11 23 -24 25 -18 3 -66 -51 -254 -285 -128 -158 -245 -301
-259 -316 l-26 -28 -100 398 c-91 363 -102 398 -122 401 -11 2 -25 -3 -30 -10z"/>
<path d="M6421 17221 c-10 -7 -25 -120 -57 -436 -23 -235 -40 -433 -37 -440 7
-20 29 -25 47 -12 12 9 20 49 31 156 8 79 15 149 15 155 0 16 308 102 319 90
5 -5 48 -62 96 -126 54 -73 94 -118 105 -118 23 0 44 26 34 42 -20 35 -499
675 -512 686 -19 14 -22 15 -41 3z m163 -277 l104 -142 -126 -35 c-70 -20
-128 -35 -129 -34 -6 6 33 357 39 355 4 -2 54 -67 112 -144z"/>
<path d="M11052 16669 c-161 -177 -292 -325 -292 -329 0 -5 7 -16 16 -24 22
-23 37 -12 150 111 54 59 102 108 106 108 3 0 72 -25 152 -55 l145 -55 3 -165
3 -165 30 0 30 0 3 425 c1 234 0 435 -3 448 -14 57 -42 32 -343 -299z m275
-166 c-2 -2 -59 17 -125 43 l-121 47 27 32 c15 18 70 80 122 137 l95 105 3
-180 c1 -99 1 -182 -1 -184z"/>
<path d="M5261 16801 c-8 -5 -12 -19 -9 -33 2 -13 72 -185 154 -381 100 -238
155 -359 166 -362 22 -8 475 182 482 201 8 22 -4 44 -26 44 -10 0 -110 -38
-220 -85 -111 -46 -203 -83 -205 -81 -2 2 -69 158 -149 347 -79 189 -150 347
-157 351 -15 10 -19 10 -36 -1z"/>
<path d="M11933 16724 c-3 -9 5 -120 18 -248 l24 -231 -88 -168 c-92 -175
-102 -212 -57 -212 21 0 35 21 116 175 l92 174 197 107 c109 59 204 114 212
122 12 12 13 19 4 36 -7 11 -17 21 -23 21 -6 0 -94 -45 -195 -101 -102 -56
-186 -99 -189 -97 -2 3 -13 92 -25 199 -11 107 -24 204 -29 217 -11 26 -48 30
-57 6z"/>
<path d="M4437 16363 c-4 -3 -7 -13 -7 -21 0 -13 319 -585 376 -674 14 -21 32
-38 42 -38 25 0 442 238 449 256 6 16 -14 44 -31 44 -7 0 -100 -50 -206 -110
-161 -92 -196 -108 -205 -96 -6 7 -91 156 -190 330 -148 261 -182 316 -200
316 -12 0 -25 -3 -28 -7z"/>
<path d="M12557 15930 c-130 -187 -227 -337 -225 -347 4 -24 438 -324 463
-321 13 2 21 12 23 28 2 22 -22 41 -203 166 l-205 142 91 131 c57 81 96 128
103 124 6 -4 76 -52 155 -107 114 -79 147 -97 160 -89 9 5 17 19 19 30 2 15
-31 42 -148 123 -82 57 -150 107 -150 111 0 7 151 230 170 252 4 5 99 -55 211
-132 111 -78 208 -141 215 -141 17 0 37 28 31 44 -8 21 -438 316 -461 316 -16
0 -75 -78 -249 -330z"/>
<path d="M3813 15934 c-8 -20 217 -832 236 -851 16 -16 31 -13 45 9 7 12 -1
54 -28 155 -21 76 -41 143 -43 149 -2 6 55 55 126 109 l131 97 130 -81 c72
-45 139 -81 149 -81 25 0 38 38 20 55 -32 30 -724 455 -741 455 -10 0 -21 -7
-25 -16z m325 -242 c39 -25 72 -48 72 -51 -1 -3 -48 -41 -105 -83 -85 -63
-105 -74 -109 -60 -3 9 -24 84 -46 166 -23 82 -44 156 -47 164 -3 7 32 -10 78
-39 46 -29 117 -72 157 -97z"/>
<path d="M13308 15394 c-145 -163 -267 -302 -271 -310 -10 -18 9 -44 32 -44 9
0 64 54 121 120 58 65 107 119 110 120 3 0 38 -31 79 -68 l75 -68 -33 -198
c-30 -183 -32 -200 -17 -214 13 -13 20 -14 34 -6 13 9 25 55 49 195 18 101 32
184 33 185 0 0 26 -2 58 -4 31 -2 77 1 101 8 55 14 128 81 154 140 37 82 21
197 -36 259 -51 55 -198 181 -211 181 -8 0 -133 -133 -278 -296z m361 143 c86
-76 97 -91 110 -149 26 -115 -57 -218 -175 -218 -62 0 -95 18 -183 98 l-74 68
118 132 c64 73 121 132 125 132 4 0 39 -28 79 -63z"/>
<path d="M3510 15078 c-187 -164 -439 -408 -589 -571 -1147 -1248 -1830 -2793
-1987 -4497 -21 -232 -30 -894 -15 -1129 78 -1189 413 -2312 987 -3302 77
-133 140 -229 91 -139 -596 1096 -890 2063 -994 3270 -26 304 -23 909 6 1235
106 1188 433 2238 1014 3255 382 667 928 1351 1502 1878 61 56 108 101 105
101 -3 0 -57 -45 -120 -101z"/>
<path d="M14003 14865 c1243 -1246 2018 -2797 2246 -4495 57 -427 66 -562 66
-1070 0 -518 -9 -654 -70 -1085 -111 -777 -301 -1430 -630 -2160 -121 -270
-331 -662 -480 -895 -88 -139 -66 -118 32 30 650 980 1072 2171 1192 3360 62
615 50 1286 -33 1866 -96 667 -292 1359 -561 1978 -423 976 -1092 1900 -1890
2611 -63 57 -16 5 128 -140z"/>
<path d="M5655 13979 c-234 -36 -477 -191 -790 -504 -335 -335 -591 -729 -801
-1233 -242 -580 -428 -1187 -519 -1687 -33 -187 -32 -183 -58 -199 -24 -16
-377 -76 -592 -101 -225 -26 -443 -16 -570 25 -136 45 -220 155 -249 328 -17
104 -35 132 -81 132 -59 0 -75 -26 -75 -123 0 -141 46 -263 131 -348 52 -52
101 -82 185 -112 116 -42 210 -50 478 -44 247 6 353 17 604 63 79 14 146 23
149 20 3 -3 -6 -67 -20 -143 -92 -497 -111 -916 -52 -1149 21 -80 80 -198 112
-224 37 -29 103 -27 131 3 31 33 28 80 -7 136 -59 94 -77 182 -86 441 -8 190
7 503 31 690 15 117 41 271 48 277 5 6 127 28 591 107 642 110 880 136 1254
136 l204 0 -6 -38 c-11 -65 -46 -420 -59 -597 -19 -261 -16 -1000 6 -1255 43
-515 122 -934 242 -1295 96 -290 197 -469 318 -568 147 -121 344 -128 511 -19
66 43 176 153 220 220 15 23 30 41 32 39 2 -2 -1 -94 -6 -203 -26 -509 -32
-772 -21 -993 13 -294 28 -331 132 -331 55 0 85 21 97 68 6 20 15 114 21 207
47 748 155 1467 310 2070 320 1244 943 2452 1630 3159 183 188 335 287 446
290 47 1 59 -3 75 -22 31 -39 39 -90 39 -250 0 -306 -54 -719 -300 -2287 -117
-744 -207 -1573 -197 -1800 6 -133 21 -190 59 -218 48 -36 140 -19 167 32 6
10 54 144 107 297 155 449 268 720 443 1059 224 435 399 694 594 883 160 154
251 148 331 -22 76 -160 129 -422 181 -896 49 -449 159 -1044 245 -1329 149
-491 427 -977 641 -1120 335 -224 679 21 1043 739 142 280 268 594 404 1010
120 366 164 524 153 553 -20 53 -81 55 -112 5 -9 -12 -28 -68 -43 -123 -77
-274 -295 -895 -408 -1160 -194 -459 -420 -780 -642 -914 -45 -27 -70 -35
-125 -39 -91 -6 -139 17 -242 115 -89 85 -150 170 -242 338 -256 464 -374 896
-488 1780 -84 656 -168 1025 -270 1178 -113 171 -308 167 -498 -10 -302 -279
-729 -995 -989 -1657 -26 -65 -48 -112 -50 -103 -5 24 46 404 138 1032 207
1414 300 2215 300 2584 0 236 -41 393 -120 465 -51 46 -98 60 -185 53 -144
-11 -311 -107 -488 -281 -683 -673 -1275 -1714 -1638 -2881 -23 -71 -76 -269
-120 -440 -43 -170 -79 -295 -79 -277 -1 115 80 705 135 989 47 240 51 289 28
333 -36 70 -117 77 -171 16 -33 -38 -62 -116 -92 -255 -70 -316 -117 -651
-155 -1080 l-15 -173 -56 -102 c-84 -149 -129 -213 -213 -297 -93 -93 -153
-124 -236 -124 -52 0 -66 4 -104 32 -174 128 -332 588 -425 1243 -51 351 -60
511 -60 985 0 517 20 813 83 1255 l16 115 130 -2 c221 -4 550 -42 684 -79 65
-18 98 -12 113 22 16 34 -15 74 -75 96 -95 36 -618 108 -779 108 -48 0 -48 0
-48 33 0 59 104 632 195 1072 120 580 172 1006 162 1340 -8 271 -45 457 -126
630 -42 90 -136 199 -206 241 -100 58 -237 82 -360 63z m217 -202 c58 -34 94
-76 129 -152 72 -153 97 -357 80 -641 -16 -277 -39 -439 -135 -954 -147 -788
-196 -1060 -222 -1225 -13 -88 -27 -168 -30 -177 -5 -16 -24 -18 -212 -18
-405 0 -844 -41 -1232 -116 -69 -13 -192 -35 -275 -49 -82 -14 -185 -31 -227
-38 l-78 -14 0 28 c0 76 88 494 156 738 209 751 513 1409 873 1886 229 303
435 499 677 641 167 98 250 125 370 121 66 -3 89 -8 126 -30z"/>
<path d="M2030 5370 c6 -11 13 -20 16 -20 2 0 0 9 -6 20 -6 11 -13 20 -16 20
-2 0 0 -9 6 -20z"/>
<path d="M2408 5086 c-354 -276 -423 -333 -426 -352 -3 -28 144 -203 193 -228
60 -31 147 -29 206 6 69 41 103 96 107 178 l4 68 38 5 c115 15 187 110 166
221 -6 33 -111 182 -140 198 -10 6 -56 -24 -148 -96z m186 -37 c37 -48 46 -69
46 -100 0 -54 -22 -93 -64 -113 -44 -21 -74 -20 -113 2 -42 23 -118 121 -105
134 30 30 169 137 179 137 6 1 32 -26 57 -60z m-236 -192 c66 -84 72 -98 72
-154 0 -65 -27 -112 -80 -140 -89 -47 -153 -25 -240 84 -33 42 -60 78 -60 82
1 10 234 190 247 190 6 1 33 -27 61 -62z"/>
<path d="M14284 4865 c-4 -9 51 -118 132 -263 76 -136 159 -284 184 -329 48
-88 65 -103 88 -79 13 13 6 30 -56 139 l-70 125 90 109 c50 59 91 109 92 110
1 2 63 -17 137 -42 123 -42 135 -44 146 -28 9 11 10 20 2 29 -11 14 -692 244
-722 244 -10 0 -20 -7 -23 -15z m251 -115 c72 -23 134 -46 139 -50 4 -5 -25
-47 -65 -95 -85 -101 -68 -108 -165 66 -67 121 -72 134 -51 127 6 -3 71 -24
142 -48z"/>
<path d="M2745 4385 c-190 -172 -260 -242 -260 -258 0 -12 7 -23 15 -25 24 -4
535 465 535 491 0 12 -7 23 -15 25 -9 1 -128 -99 -275 -233z"/>
<path d="M13892 4389 c-71 -28 -163 -114 -199 -187 -25 -51 -28 -68 -28 -157
0 -89 3 -106 28 -157 90 -184 305 -265 485 -183 109 50 175 126 207 239 15 53
16 60 2 74 -22 21 -43 3 -52 -45 -16 -86 -85 -172 -173 -215 -38 -19 -63 -23
-132 -23 -100 0 -154 21 -220 88 -71 70 -85 107 -85 222 0 113 9 137 78 212
47 51 94 78 163 93 51 12 66 24 57 47 -7 19 -69 15 -131 -8z"/>
<path d="M3170 4215 c-75 -22 -130 -56 -183 -115 -60 -67 -89 -143 -91 -240
-2 -110 30 -187 108 -266 80 -80 148 -108 261 -107 159 0 287 89 349 241 27
68 25 188 -4 267 -32 83 -122 173 -204 204 -79 29 -166 35 -236 16z m234 -79
c63 -31 120 -89 149 -155 31 -68 29 -188 -3 -256 -31 -64 -91 -124 -155 -154
-76 -37 -190 -36 -267 2 -251 123 -229 485 35 579 72 26 168 19 241 -16z"/>
<path d="M13254 3846 c-3 -8 -2 -21 3 -29 4 -7 107 -134 227 -281 215 -261
247 -291 254 -241 3 25 -431 559 -459 563 -10 2 -22 -3 -25 -12z"/>
<path d="M3922 3678 c-140 -191 -372 -530 -372 -543 0 -20 27 -30 43 -16 8 6
83 109 168 230 84 121 155 218 157 217 1 -2 -18 -137 -43 -302 -50 -333 -51
-342 -30 -350 9 -4 134 58 296 146 154 83 282 150 284 148 1 -2 -69 -104 -156
-227 -88 -124 -159 -233 -159 -242 0 -23 16 -32 35 -22 23 13 408 566 409 588
1 11 -7 21 -16 23 -14 3 -284 -138 -585 -305 -51 -28 -61 -31 -57 -16 2 10 26
170 54 356 40 263 48 342 39 353 -18 22 -26 18 -67 -38z"/>
<path d="M12790 3498 c-142 -100 -206 -150 -208 -164 -6 -41 26 -33 122 33 53
36 98 64 100 62 1 -2 88 -127 191 -276 104 -150 194 -273 201 -273 18 0 37 28
28 42 -4 7 -83 121 -174 253 -92 132 -175 252 -184 266 l-17 27 96 67 c66 46
95 72 93 83 -7 39 -47 20 -248 -120z"/>
<path d="M12112 3331 c-21 -13 -64 -182 -50 -198 24 -30 42 -8 69 85 24 81 25
95 12 107 -17 17 -14 17 -31 6z"/>
<path d="M12140 3095 c-134 -75 -206 -120 -208 -132 -3 -24 330 -627 349 -631
17 -3 392 200 422 228 17 16 17 18 2 34 -19 19 4 29 -234 -102 -96 -53 -176
-92 -178 -87 -2 6 -32 62 -68 125 l-64 115 32 18 c18 10 82 46 142 80 82 46
110 67 110 82 0 36 -34 27 -167 -47 -72 -40 -135 -74 -139 -76 -12 -5 -142
239 -133 248 5 4 90 53 189 108 155 85 180 103 180 123 0 13 -6 25 -15 26 -8
1 -107 -49 -220 -112z"/>
<path d="M4763 3182 c-5 -4 -85 -146 -178 -316 -119 -220 -165 -314 -159 -324
14 -22 407 -233 429 -230 12 2 20 11 20 23 0 15 -42 43 -190 123 -104 57 -191
105 -193 107 -3 3 116 226 129 239 4 5 69 -24 148 -67 141 -77 175 -86 169
-44 -2 15 -41 41 -140 96 -76 41 -138 79 -138 84 0 16 124 237 133 237 5 0 92
-45 193 -100 101 -55 188 -100 193 -100 5 0 14 7 21 16 19 22 9 29 -180 132
-227 123 -245 131 -257 124z"/>
<path d="M11445 2756 c-196 -83 -241 -105 -243 -122 -5 -38 27 -36 135 10
l104 44 18 -41 c10 -23 69 -162 131 -309 100 -238 115 -268 135 -268 13 0 25
6 28 13 3 8 -53 150 -124 318 -71 167 -129 306 -129 309 0 3 43 23 96 44 53
22 102 45 109 53 15 15 11 39 -9 46 -6 3 -120 -41 -251 -97z"/>
<path d="M5423 2828 c-20 -26 -274 -651 -270 -663 3 -6 52 -31 109 -56 95 -40
110 -44 188 -43 118 0 185 27 266 108 120 120 144 275 67 433 -41 83 -112 142
-231 191 -111 46 -115 47 -129 30z m190 -126 c93 -50 151 -153 151 -268 1
-174 -134 -309 -309 -309 -56 0 -86 6 -152 33 -75 31 -81 36 -73 55 4 12 56
137 115 277 59 140 109 260 112 267 5 14 75 -11 156 -55z"/>
<path d="M6213 2528 c-18 -22 -225 -669 -219 -685 3 -8 15 -13 28 -11 20 3 34
39 130 333 60 182 107 339 106 350 -3 23 -30 31 -45 13z"/>
<path d="M10752 2499 c-71 -35 -112 -126 -91 -202 26 -100 91 -142 212 -139
64 2 86 -2 117 -19 106 -60 106 -211 0 -273 -46 -27 -116 -26 -162 2 -61 38
-98 -5 -40 -46 136 -96 328 -6 340 159 5 70 -10 120 -51 166 -48 55 -97 73
-200 73 -88 0 -90 1 -123 34 -30 30 -34 40 -34 84 0 41 5 55 28 80 41 44 93
51 149 22 48 -26 76 -21 71 12 -4 30 -79 68 -133 68 -22 0 -59 -10 -83 -21z"/>
<path d="M10082 2331 c-123 -27 -227 -52 -233 -58 -12 -12 133 -702 150 -712
9 -6 437 78 478 94 7 2 13 11 13 18 0 37 -24 36 -239 -9 -117 -25 -214 -44
-215 -42 -6 8 -57 270 -54 273 2 2 71 18 153 35 160 34 191 48 163 76 -14 14
-28 13 -162 -15 -80 -17 -152 -31 -159 -31 -9 0 -23 44 -42 135 -15 75 -26
137 -24 138 2 2 97 23 212 47 114 24 212 49 218 57 13 15 -4 44 -25 42 -6 0
-111 -22 -234 -48z"/>
<path d="M6740 2357 c-293 -66 -397 -419 -185 -630 68 -68 140 -100 239 -105
100 -4 189 21 194 56 5 31 -18 36 -77 16 -112 -36 -247 -1 -325 86 -58 65 -80
122 -80 210 0 100 28 163 100 229 63 58 123 81 209 81 86 0 146 -23 209 -81
60 -54 70 -58 86 -29 8 16 4 26 -21 55 -80 90 -230 138 -349 112z"/>
<path d="M7415 2240 c-10 -17 -107 -690 -101 -705 9 -24 45 -18 51 8 14 62
102 684 98 694 -6 15 -39 17 -48 3z"/>
<path d="M7760 2195 c-7 -8 -21 -152 -35 -362 -22 -332 -22 -373 4 -373 27 1
32 29 52 315 11 165 22 301 23 303 2 2 102 -143 222 -322 211 -313 239 -348
260 -315 9 16 55 689 48 712 -6 20 -42 23 -49 5 -3 -7 -14 -145 -25 -307 -11
-162 -21 -295 -22 -297 -2 -1 -101 143 -222 321 -120 178 -224 326 -232 329
-7 3 -18 -1 -24 -9z"/>
<path d="M8852 2167 c-6 -7 -65 -172 -132 -367 -100 -295 -118 -356 -107 -367
26 -26 43 -2 86 126 50 150 33 139 219 142 l114 1 54 -123 c30 -68 60 -126 66
-130 17 -11 38 1 38 20 0 19 -285 678 -302 698 -13 16 -23 16 -36 0z m87 -251
c34 -76 61 -142 61 -147 0 -6 -219 -18 -229 -12 -3 2 87 280 96 296 7 12 6 14
72 -137z"/>
</g>
</svg>
